# xmcd
#
# Track frame offsets:
#	150
#	13741
#	42005
#	58186
#	74236
#	89877
#	109380
#	139910
#	163747
#	179064
#	192803
#	205728
#	229285
#
# Disc length: 3312 seconds
#
# Revision: 0
# Processed by: cddbd v1.5.2PL0 Copyright (c) Steve Scherf et al.
# Submitted via: EasyCDDAExtractor 12.1.0.1
#
DISCID=ce0cee0d
DTITLE=Gerald Cote - Chanter toute la veillee
DYEAR=2010
DGENRE=Folklore
TTITLE0=Le petit Mede
TTITLE1=Le roi boit
TTITLE2=Le diable est sorti de l'enfer
TTITLE3=Ma fille veut se marier
TTITLE4=Les vepres
TTITLE5=Je bois du Gingotte
TTITLE6=Bougre de vieille
TTITLE7=Frank you
TTITLE8=Gros jambon
TTITLE9=L'enjoleur
TTITLE10=Si la saucisse pouvait parler
TTITLE11=Jos passe donc le cabaret
TTITLE12=La bouteille de rhum
EXTD=
EXTT0=
EXTT1=
EXTT2=
EXTT3=
EXTT4=
EXTT5=
EXTT6=
EXTT7=
EXTT8=
EXTT9=
EXTT10=
EXTT11=
EXTT12=
PLAYORDER=
